<?xml version="1.0" encoding="UTF-8" standalone="no"?>
<!-- Created with Inkscape (http://www.inkscape.org/) -->

<svg
   xmlns:dc="http://purl.org/dc/elements/1.1/"
   xmlns:cc="http://creativecommons.org/ns#"
   xmlns:rdf="http://www.w3.org/1999/02/22-rdf-syntax-ns#"
   xmlns:svg="http://www.w3.org/2000/svg"
   xmlns="http://www.w3.org/2000/svg"
   xmlns:sodipodi="http://sodipodi.sourceforge.net/DTD/sodipodi-0.dtd"
   xmlns:inkscape="http://www.inkscape.org/namespaces/inkscape"
   id="svg2"
   version="1.1"
   inkscape:version="0.47 r22583"
   width="317.4375"
   height="121.5375"
   xml:space="preserve"
   sodipodi:docname="Florida Gators script-NCAA.pdf"><metadata
     id="metadata8"><rdf:RDF><cc:Work
         rdf:about=""><dc:format>image/svg+xml</dc:format><dc:type
           rdf:resource="http://purl.org/dc/dcmitype/StillImage" /><dc:title></dc:title></cc:Work></rdf:RDF></metadata><defs
     id="defs6"><inkscape:perspective
       sodipodi:type="inkscape:persp3d"
       inkscape:vp_x="0 : 0.5 : 1"
       inkscape:vp_y="0 : 1000 : 0"
       inkscape:vp_z="1 : 0.5 : 1"
       inkscape:persp3d-origin="0.5 : 0.33333333 : 1"
       id="perspective10" /></defs><sodipodi:namedview
     pagecolor="#ffffff"
     bordercolor="#666666"
     borderopacity="1"
     objecttolerance="10"
     gridtolerance="10"
     guidetolerance="10"
     inkscape:pageopacity="0"
     inkscape:pageshadow="2"
     inkscape:window-width="640"
     inkscape:window-height="481"
     id="namedview4"
     showgrid="false"
     inkscape:zoom="1.7011223"
     inkscape:cx="158.71875"
     inkscape:cy="60.768749"
     inkscape:window-x="0"
     inkscape:window-y="0"
     inkscape:window-maximized="0"
     inkscape:current-layer="g12" /><g
     id="g12"
     inkscape:groupmode="layer"
     inkscape:label="Florida Gators script-NCAA"
     transform="matrix(1.25,0,0,-1.25,0,121.5375)"><g
       id="g14"
       transform="scale(0.24,0.24)"><path
         d="M 800.355,220.77 C 788.32,217.16 768.172,176.254 750.727,173.246"
         style="fill:none;stroke:#0021A5;stroke-opacity:1;stroke-width:5;stroke-linecap:square;stroke-linejoin:miter;stroke-miterlimit:10;stroke-dasharray:none"
         id="path16" /><path
         d="m 435.219,122.117 1.504,76.996 0,0 c 0,14.739 -0.606,26.164 -1.805,33.985 -0.906,7.218 -2.711,13.238 -5.113,17.449 3.906,-1.809 9.922,-2.711 17.742,-3.313 1.504,0 2.711,0 3.91,-0.296 0.602,-8.727 0.902,-25.571 0.902,-49.934 l 0,0 -0.902,-75.191 c 0,-7.52 -1.5,-12.633 -4.211,-15.04 -1.504,-1.503 -3.91,-2.703 -6.918,-3.003 -1.199,0.902 -2.707,3.308 -4.512,7.519 -0.296,1.5 -0.597,5.109 -0.597,10.828 l 0,0 z m -147.078,61.957 c 0,2.406 0,5.114 0,7.52 0,30.074 -2.411,51.129 -7.52,62.859 -5.113,12.031 -14.137,18.047 -27.07,18.047 -7.52,0 -17.145,-2.707 -27.973,-8.422 -5.414,-2.707 -14.137,-7.82 -26.469,-15.637 l -8.718,-5.414 0,0 c -13.536,-8.425 -23.164,-16.543 -28.274,-24.062 -5.113,-7.82 -7.519,-17.445 -7.519,-28.875 0,-0.305 0,-0.305 0,-0.305 l 0.3,-9.621 0,0 c 0.602,-12.332 6.016,-21.957 16.243,-28.875 3.605,-2.703 8.121,-4.812 13.832,-6.617 -0.602,-2.106 -1.203,-5.113 -2.403,-8.422 -3.011,-8.723 -7.824,-16.242 -14.738,-22.258 -5.715,-5.41 -11.129,-7.82 -15.644,-7.82 -6.012,0 -11.426,1.508 -16.54,4.512 -6.617,3.914 -13.835,11.129 -21.957,21.355 -7.218,9.027 -12.632,22.258 -16.2418,40.606 -3.3086,15.64 -4.8125,32.785 -4.8125,50.828 0,16.242 0.9024,27.371 3.0078,33.386 4.211,12.332 10.8285,24.063 20.7535,35.192 12.032,13.836 24.965,21.054 38.5,21.054 l 0.899,0 0,0 c 6.922,-0.3 10.832,-1.503 12.336,-3.609 1.203,-1.805 2.105,-6.016 2.402,-12.933 0.301,-4.813 0.606,-8.422 0.906,-10.829 0.899,-5.113 3.004,-9.324 5.715,-12.632 7.52,-9.926 16.239,-14.739 26.164,-14.739 7.821,0 15.942,3.008 24.063,9.625 1.504,1.203 3.609,3.309 6.015,6.016 2.407,2.707 4.813,5.113 7.219,6.617 4.512,3.309 11.129,6.317 19.551,9.324 1.203,0.301 2.406,0.903 3.609,1.805 10.227,6.918 15.34,16.242 15.34,27.973 0,4.211 -0.601,9.324 -2.105,15.035 -0.602,1.805 -1.203,3.312 -2.407,4.515 l -1.808,2.707 0,0 c -12.027,16.84 -24.059,29.774 -35.789,38.497 -21.656,16.242 -47.219,24.664 -76.395,24.664 -7.218,0 -14.437,-0.602 -21.957,-1.504 C 108.879,399.727 81.207,384.688 55.3398,358.82 45.418,348.598 36.3945,337.168 28.2734,325.137 21.0547,314.008 15.3398,303.48 11.4297,293.254 7.82031,284.832 5.11328,273.703 3.30859,259.867 1.20313,245.43 0,230.094 0,214.453 0,187.082 3.00781,162.117 9.32422,139.559 16.8398,113.391 29.4766,87.5234 47.2227,62.2617 62.5586,40.9063 76.9961,25.5664 90.832,16.543 107.074,5.41406 127.227,0 150.688,0 c 12.628,0 24.359,2.10938 34.886,6.32031 13.836,5.10939 28.574,14.73439 44.516,27.96879 13.836,12.0312 25.566,27.3672 35.793,46.6211 7.82,14.4336 13.234,28.5698 16.844,42.7068 0.601,2.41 1.199,5.414 1.804,9.024 0.301,-23.161 2.707,-40.3012 6.914,-50.8285 8.727,-21.6562 21.36,-37.5977 37.598,-47.8242 11.129,-6.918 21.957,-10.2266 32.184,-10.2266 l 0.902,0 0.301,0 c 7.519,0 14.437,1.2031 20.754,3.9102 3.609,1.5039 7.519,3.9101 11.73,6.9179 0.301,0.3008 0.602,0.6016 0.902,0.9063 0.602,-0.3047 1.504,-0.9063 2.106,-1.207 7.219,-3.9102 14.437,-5.7149 21.957,-5.7149 6.016,0 12.93,0.9024 21.351,2.7071 10.532,2.1054 19.551,6.9179 27.973,15.039 3.309,3.0078 6.918,7.5195 10.828,13.2344 3.91,-6.0156 7.821,-11.1289 11.43,-14.7383 9.926,-10.2266 21.656,-16.2422 35.191,-18.0469 2.407,-0.3007 4.813,-0.3007 6.918,-0.3007 13.231,0 25.567,4.8125 36.696,14.1367 5.41,4.5117 9.621,9.3242 12.629,14.1367 l 0,0 c 2.105,3.6055 5.113,9.0234 8.421,16.543 4.211,-7.8204 9.629,-15.0391 15.641,-21.3555 14.438,-15.9414 30.676,-24.3633 48.426,-24.9649 l 0,0 2.707,-0.2968 0,0 c 0,0 0,0 0.301,0 26.769,0 47.218,16.2383 61.054,48.1172 5.418,10.8281 11.43,38.2028 17.746,82.7148 l 0.301,2.707 0.903,0 0,0 c 0,0 0,0 0.3,0 4.817,0 9.625,0.301 14.438,1.203 7.519,1.203 15.34,6.016 23.758,14.137 3.91,4.211 9.629,10.527 16.847,19.848 6.016,7.519 9.922,12.335 12.032,14.14 1.199,-0.601 3.308,-1.805 6.015,-4.512 -1.207,-2.41 -3.008,-5.714 -5.418,-9.929 -12.629,-22.254 -21.957,-42.707 -28.269,-61.055 -0.301,-0.601 -0.301,-1.203 -0.602,-1.801 -2.406,-13.238 -3.609,-24.968 -3.609,-35.4958 0,-37.8945 15.941,-60.1524 48.422,-67.0703 0.304,0 0.605,-0.3008 1.207,-0.3008 1.8,-0.3008 3.609,-0.3008 5.41,-0.3008 10.226,0 21.355,3.9102 33.387,11.4297 5.718,3.9102 13.535,9.625 23.16,18.0469 1.203,-1.5039 2.406,-2.7071 3.609,-4.211 4.809,-4.5117 11.129,-10.2265 19.547,-16.8398 10.531,-8.125 25.566,-14.1406 45.117,-17.75 9.328,-1.8047 18.047,-3.0078 25.567,-3.3086 0,0 0,0 0.3,0 l 0.301,0 0.602,0 0,0 c 0,0 0,0 0.304,0 l 2.102,0 0,0 c 14.738,0.9023 25.868,2.4102 33.388,5.1133 18.05,6.0156 27.07,16.8437 27.37,32.7851 0.3,0.6016 0.6,1.2032 1.2,2.4063 3.91,6.0156 7.22,12.332 9.92,18.9492 2.11,5.1133 3.32,9.9219 3.32,14.4336 0,6.6172 -2.11,12.336 -6.62,16.547 -2.11,2.101 -4.51,3.609 -6.92,4.808 1.81,4.512 3.61,9.329 5.42,14.438 5.11,15.039 7.82,29.777 7.82,44.215 0,12.933 -2.11,25.262 -6.32,36.691 -3.31,9.629 -7.22,15.946 -11.43,19.555 -1.5,1.199 -4.21,5.113 -8.72,11.726 -5.72,8.727 -10.53,17.747 -14.14,26.469 -6.61,15.641 -16.24,23.461 -28.87,23.461 -3.012,0 -6.621,-0.601 -10.828,-1.805 l -0.301,-0.3 0,0 c -3.91,-0.602 -7.52,-3.309 -10.828,-7.52 -1.508,-1.805 -3.309,-4.211 -5.418,-7.219 l 0,0 -13.231,-20.152 0,0 c 0,-0.301 0,-0.301 0,-0.301 l -21.957,-35.187 0,0 c 0,0 0,-0.301 -0.3,-0.301 l -15.34,-28.273 0,0 c -13.836,-26.469 -22.559,-41.809 -25.266,-46.622 -0.601,-0.296 -0.902,-0.898 -0.902,-1.503 -3.61,-7.52 -10.828,-17.141 -21.356,-28.872 -3.91,-4.21 -7.519,-8.1206 -10.828,-11.1284 0.606,2.4023 1.207,5.4104 1.805,8.4184 1.805,8.121 15.64,40.007 41.808,96.25 5.415,11.73 7.821,22.257 7.821,32.183 0,14.133 -5.114,25.863 -15.34,34.586 -5.109,4.512 -10.227,7.52 -15.941,9.024 -0.903,0.3 -1.805,0.601 -2.708,0.601 -1.199,0 -3.007,0.301 -4.808,0.301 0,0 0,0 -0.301,0 l -24.367,-0.902 0,0 c -12.027,0 -19.246,0.902 -21.656,3.007 -1.801,3.91 -4.512,7.821 -8.422,12.032 -6.317,6.918 -13.231,10.226 -20.449,10.226 -12.036,0 -19.856,-8.121 -23.461,-24.965 -1.805,-9.023 -7.52,-20.754 -16.844,-35.492 -1.203,-1.805 -2.406,-3.609 -3.609,-5.414 -1.801,7.52 -4.211,14.438 -7.219,20.453 -7.52,13.235 -17.442,20.153 -30.078,20.153 l 0,0 -0.899,-0.301 0,0 c -3.312,0.301 -9.929,2.105 -19.551,5.414 -13.238,4.812 -23.16,7.219 -29.777,7.219 -10.226,0 -19.25,-2.407 -27.375,-7.821 -4.809,-3.308 -13.832,-10.828 -26.766,-22.859 l -0.3,-0.602 0,0 c -12.032,-11.129 -20.75,-29.476 -26.77,-55.34 -3.008,-13.835 -5.109,-27.671 -5.711,-41.207 -0.906,-2.406 -4.515,-9.32 -10.828,-20.75 l 0,0 -4.211,-7.82 0,0 c -6.316,-12.336 -11.129,-20.156 -14.137,-23.164 -0.902,0.906 -1.808,1.809 -3.007,3.309 0,0 0,0 0,0.3 -0.903,1.809 -1.504,6.02 -2.106,12.938 -0.906,8.719 -1.504,20.148 -1.504,34.285 0,19.852 0.899,45.719 2.707,77.598 0.301,5.113 0.602,7.824 0.602,8.426 0,2.101 0,3.609 0.301,4.507 1.199,0.301 2.707,0.301 5.113,0.602 6.613,0.305 11.73,0.902 15.34,2.406 9.32,3.61 13.832,10.227 13.832,20.152 l 0,0.301 c 0,9.625 -4.512,16.242 -13.531,19.852 -3.309,1.504 -8.122,2.406 -14.739,3.008 -0.301,0 -0.601,0 -1.207,0 l 0.606,55.64 0,0 c 0,11.129 -0.301,17.75 -0.907,20.453 -0.601,2.407 -1.8,4.211 -3.308,6.016 -3.606,3.91 -9.32,6.316 -17.141,6.617 -0.601,0.301 -1.203,0.301 -1.804,0.301 -2.407,3.008 -4.813,5.414 -7.52,7.219 -6.016,4.211 -13.234,6.316 -21.957,6.316 -2.406,0 -5.113,-0.301 -7.82,-0.601 -11.731,-1.504 -19.852,-12.332 -24.063,-32.481 -2.101,-8.726 -3.91,-22.859 -5.711,-42.41 -0.906,-11.129 -1.808,-18.648 -2.711,-23.16 -1.504,-0.301 -3.004,-0.903 -5.109,-1.203 -7.824,-1.203 -13.539,-2.707 -17.149,-4.211 -10.824,-3.91 -16.238,-10.828 -16.238,-20.153 0,-5.714 1.199,-10.527 3.91,-14.437 0.602,-1.203 1.504,-2.106 2.407,-3.309 -1.204,0.301 -2.707,0.602 -3.911,0.602 -4.812,0 -8.121,0.301 -10.531,1.504 -1.199,0.601 -2.703,2.105 -4.508,4.211 -0.3,0 -0.3,0 -0.3,0 l -1.805,1.804 0,0 c 0,0 0,0 0,0.301 -3.309,3.008 -7.219,6.016 -12.332,8.121 -6.918,3.61 -14.438,5.414 -21.957,5.414 -16.242,0 -31.281,-7.519 -45.719,-22.257 -14.434,-15.036 -24.059,-38.797 -29.473,-71.883 -0.3,-0.602 -0.3,-1.203 -0.3,-2.106 l 0,0 z M 914.348,83.6133 c 7.519,8.1211 17.445,19.2497 29.777,33.3867 12.027,13.836 21.656,24.668 29.176,32.785 -0.301,-5.414 -0.606,-12.027 -1.207,-19.847 l 0,0 -0.903,-9.629 0,0 c -0.3,-6.918 -3.308,-14.438 -8.718,-22.2582 -4.211,-6.0156 -8.426,-10.5274 -12.637,-13.836 -2.402,-0.6015 -8.719,-1.1992 -18.949,-1.1992 -4.508,0 -10.223,0.2969 -16.539,0.5977 l 0,0 z m -561.243,65.2737 -0.3,15.035 c 0,18.949 1.203,30.078 3.308,33.687 2.106,3.004 4.211,5.414 6.918,7.52 1.805,1.203 3.309,2.105 4.512,2.105 0.602,0 1.504,-0.601 2.707,-1.804 1.805,-4.215 3.008,-18.348 3.008,-42.41 0,-13.536 -0.602,-27.672 -1.504,-43.012 -0.602,-12.629 -1.203,-19.848 -1.504,-21.9572 -0.602,-1.5 -1.203,-3.0078 -2.707,-4.5078 -0.902,-0.6016 -1.504,-1.2032 -2.105,-1.2032 -1.504,0 -3.911,1.8047 -6.918,5.1133 -1.504,3.0079 -3.008,12.0269 -4.211,26.4649 -0.903,9.93 -1.204,18.047 -1.204,24.668 l 0,0.301 z m 299.567,-29.176 c -3.004,4.809 -4.508,11.727 -4.508,21.051 0,14.136 1.203,26.769 3.609,38.199 0.301,0.902 0.301,1.504 0.598,2.105 1.508,-2.406 2.41,-3.91 3.313,-5.113 1.504,-2.105 3.308,-4.211 5.113,-5.414 -0.301,-7.519 -0.906,-15.641 -2.106,-24.363 -1.804,-13.836 -3.91,-22.559 -6.019,-26.465 l 0,0"
         style="fill:#FA4616;fill-opacity:1;fill-rule:evenodd;stroke:none"
         id="path18" /><path
         d="m 150.688,7.51953 c -21.958,0 -40.606,5.11327 -55.9458,15.03907 C 82.1094,31.2813 68.2734,45.7188 53.5352,66.4727 36.0938,91.1328 23.7617,116.102 16.543,141.668 c -6.0157,21.957 -9.02347,46.016 -9.02347,72.785 0,15.34 0.90235,30.078 3.00777,44.211 2.1055,13.234 4.5118,23.762 7.8204,31.883 3.9062,9.625 9.3242,19.851 16.2421,30.379 7.8165,12.027 16.543,22.859 26.1641,32.48 24.6641,24.969 50.8321,39.102 78.8051,42.711 7.218,0.903 14.136,1.504 21.054,1.504 27.371,0 51.43,-7.82 71.883,-23.156 11.43,-8.426 22.859,-20.453 34.289,-36.695 l 0,0 1.805,-2.707 c 0.601,-0.602 0.902,-1.504 1.203,-2.11 1.203,-5.109 2.105,-9.621 2.105,-13.23 0,-9.024 -4.21,-16.243 -12.332,-21.957 -0.601,-0.301 -1.203,-0.602 -1.804,-0.903 -9.024,-3.008 -16.242,-6.316 -21.657,-9.925 -2.707,-2.106 -5.714,-4.813 -8.421,-8.122 -2.106,-2.406 -3.61,-3.91 -5.114,-5.113 -6.617,-5.113 -12.933,-7.82 -19.25,-7.82 -7.515,0 -14.136,3.91 -20.148,12.031 -2.106,2.106 -3.613,5.414 -4.211,9.324 -0.606,2.106 -0.906,5.114 -0.906,9.625 -0.598,8.121 -1.805,13.836 -3.61,16.543 -2.703,4.512 -9.023,6.918 -18.648,6.918 l -0.598,0 c -15.941,0 -30.98,-7.82 -44.515,-23.461 -10.528,-11.73 -17.7465,-24.363 -22.2582,-37.597 -2.1055,-6.914 -3.3086,-18.645 -3.3086,-35.793 0,-18.649 1.5039,-36.09 5.1133,-52.332 3.9101,-19.25 9.625,-33.989 17.4455,-43.614 8.722,-11.129 16.844,-18.945 24.062,-23.156 6.317,-3.91 12.934,-5.7187 20.45,-5.7187 6.621,0 13.539,3.3087 20.753,9.6287 7.825,7.219 13.235,15.637 16.543,25.567 2.407,6.613 3.61,11.726 3.61,15.336 0,0.601 0,0.902 0,1.203 -0.301,0 -0.602,0 -0.899,0 -7.222,1.808 -12.933,4.211 -16.843,6.918 -8.125,5.414 -12.633,13.234 -12.934,23.16 -0.301,3.91 -0.602,7.219 -0.602,9.625 0,9.922 2.407,18.047 6.618,24.664 4.507,6.914 13.23,14.133 25.863,21.953 l 0,0 8.723,5.414 c 11.73,7.52 20.453,12.633 25.867,15.344 9.926,5.109 18.347,7.816 24.664,7.816 9.625,0 16.242,-4.812 20.152,-13.836 4.512,-10.824 6.918,-30.675 6.918,-59.851 0,-13.239 -0.601,-26.168 -1.504,-38.801 -0.902,-12.332 -2.105,-21.656 -3.609,-27.371 C 272.199,111.891 266.785,98.0508 259.266,84.2148 249.641,65.8711 238.211,51.1328 224.977,40.0039 209.938,27.0703 195.805,18.3477 182.871,13.2383 173.246,9.32813 162.418,7.51953 150.688,7.51953 l 0,0 z m 141.363,135.04647 0,-2.707 c 0,-26.168 2.105,-44.5152 6.316,-55.3434 8.117,-20.1484 19.852,-34.8867 34.887,-44.2109 9.625,-6.0156 18.949,-9.0234 27.973,-9.0234 l 0.902,0 0.301,0 c 6.617,0 12.633,0.9023 17.746,3.3085 3.008,1.2032 6.316,3.3086 10.226,6.0157 2.407,1.8047 3.61,2.707 4.211,2.707 l 0.301,0 0,0 c 1.805,-0.3047 4.211,-0.9023 6.617,-2.4062 6.016,-3.3086 12.032,-4.8125 18.348,-4.8125 5.414,0 12.031,0.9023 19.848,2.707 9.023,1.5039 17.144,5.7148 24.062,12.6328 3.91,3.9102 8.426,9.625 13.535,17.4414 1.203,1.8086 2.406,3.3125 3.309,4.5156 0.301,-0.6054 0.601,-1.5039 1.203,-2.4062 5.414,-9.3281 10.227,-16.2422 15.039,-21.0547 8.723,-8.7227 18.949,-14.1367 30.68,-15.6406 2.105,-0.3008 4.211,-0.3008 6.015,-0.3008 11.43,0 21.957,3.9101 31.879,12.332 4.512,4.207 8.422,8.1211 11.129,12.332 l 0,0 c 3.008,4.5118 6.918,13.2344 12.332,25.8633 0.606,1.8086 1.504,3.6094 2.106,5.1172 5.113,-13.2383 12.031,-24.668 21.355,-34.8906 13.234,-14.1367 27.672,-21.6563 43.313,-22.5586 0,0 0,0 0.3,0 l 2.106,0 0,0 c 0,0 0,0 0.301,0 23.457,0 41.804,14.7383 54.136,43.9102 5.118,9.6289 10.828,36.3942 17.145,80.6092 0.601,4.211 1.203,7.219 1.504,9.024 l 7.219,0 0,0 c 0,-0.301 0,-0.301 0.3,-0.301 4.211,0 8.723,0.601 13.235,1.203 6.015,0.902 12.332,5.113 19.55,12.332 3.911,3.605 9.321,10.227 16.239,18.949 8.121,10.528 13.238,15.942 15.039,16.543 0.902,0.301 1.808,0.602 2.711,0.602 3.609,0 8.719,-3.61 15.039,-10.231 -0.602,-2.402 -3.313,-7.515 -7.82,-15.34 -12.032,-21.953 -21.36,-41.804 -27.372,-59.851 -0.3,-0.301 -0.3,-0.602 -0.3,-0.903 -2.407,-12.628 -3.61,-24.058 -3.61,-33.9878 0,-33.6836 14.133,-53.8359 42.41,-59.8516 0.301,0 0.301,0 0.598,0 1.504,-0.3008 3.012,-0.3008 4.512,-0.3008 8.726,0 18.648,3.3086 29.176,10.2266 6.019,3.9102 14.136,10.2266 24.363,18.9492 1.805,1.5 3.609,3.0078 5.113,4.211 0.602,-2.711 2.707,-6.3203 6.918,-10.5274 4.512,-4.2109 10.524,-9.625 18.649,-15.9414 9.625,-7.5195 23.46,-12.9336 42.109,-16.543 9.019,-1.8046 17.141,-2.707 24.359,-3.0078 l 0.301,0 c 0.301,0 0.301,0 0.301,0 l 2.105,0 0,0 c 14.137,0.6016 24.67,2.1055 31.58,4.5118 14.74,5.1132 21.96,13.8359 22.26,26.7695 0,1.2031 0.9,3.0078 2.41,5.414 3.91,5.7149 6.91,11.7305 9.32,17.7422 1.81,4.211 2.71,8.1211 2.71,11.7305 0,4.8164 -1.51,8.4258 -4.21,11.4336 -2.71,2.4024 -5.72,3.9104 -9.33,3.9104 -1.2,0 -2.4,-0.305 -3.31,-0.606 3.01,6.918 6.02,14.739 9.03,23.766 5.11,13.832 7.52,27.668 7.52,41.504 0,12.031 -1.81,23.461 -5.72,34.289 -3.01,8.117 -6.31,13.531 -9.32,16.242 -2.11,1.504 -5.42,6.016 -10.23,13.234 -6.01,9.325 -10.83,18.649 -14.74,27.668 -5.11,12.633 -12.63,18.95 -21.95,18.95 -2.41,0 -5.117,-0.301 -8.426,-1.504 -0.301,0 -0.601,-0.301 -0.601,-0.301 -2.403,-0.301 -4.813,-1.805 -7.219,-4.813 -1.203,-1.804 -2.703,-3.91 -4.813,-6.918 -3.308,-4.812 -7.816,-11.73 -13.234,-20.148 -10.524,-16.543 -18.043,-28.273 -21.953,-35.191 -1.508,-2.407 -6.617,-12.032 -15.34,-28.274 -14.137,-26.469 -22.559,-42.109 -25.566,-46.922 -0.301,-0.297 -0.301,-0.597 -0.602,-0.898 -3.91,-7.824 -11.43,-18.348 -22.555,-30.684 -9.929,-10.8278 -18.347,-18.9489 -25.269,-24.0583 0,0.8984 0,1.5 0,2.4062 0,6.3125 1.203,15.0391 3.609,25.5621 1.805,8.727 15.942,41.207 42.109,98.051 4.813,10.531 7.52,20.156 7.52,28.879 0,12.027 -4.512,21.652 -12.934,29.172 -4.207,3.609 -8.722,6.016 -13.234,7.219 -0.301,0.301 -0.902,0.301 -1.203,0.301 -1.203,0.3 -2.707,0.3 -4.207,0.3 0,0 0,0 -0.301,0 l -24.066,-0.601 0,0 c -17.141,0 -26.469,2.105 -28.571,6.617 -1.507,3.309 -3.91,6.918 -7.218,10.527 -5.118,5.114 -9.926,7.821 -15.039,7.821 -8.122,0 -13.536,-6.317 -15.946,-18.95 -2.101,-9.925 -8.117,-22.558 -18.043,-37.898 -4.511,-6.914 -8.722,-12.328 -12.633,-17.141 -0.902,-1.207 -2.105,-2.406 -3.007,-3.312 -0.301,14.441 -3.008,26.469 -8.121,35.793 -6.016,10.828 -13.832,16.242 -23.461,16.242 l -0.899,0 0,0 c -4.211,0 -11.73,1.805 -22.258,5.715 -12.332,4.512 -21.359,6.617 -27.07,6.617 -8.726,0 -16.246,-2.105 -23.16,-6.617 -4.512,-3.008 -13.234,-10.227 -25.867,-21.957 l -0.301,-0.602 0,0 c -10.828,-9.922 -18.945,-27.371 -24.664,-51.734 -3.008,-13.531 -4.809,-27.067 -5.711,-40.602 -0.301,-2.406 -4.215,-10.226 -11.43,-23.156 l 0,0 -4.215,-7.519 0,0 c 0,0 0,0 0,-0.305 -9.621,-18.344 -16.539,-27.672 -20.75,-27.672 -2.109,0 -5.113,2.41 -8.722,6.918 -0.301,0 -0.301,0.301 -0.598,0.301 -1.207,1.808 -2.41,7.519 -3.312,16.847 -0.903,9.02 -1.504,20.45 -1.504,34.887 0,19.852 0.902,46.02 2.707,78.203 0.301,4.508 0.601,7.219 0.601,7.821 0,3.609 0.301,6.312 0.903,7.816 0.3,0.902 1.203,1.805 2.406,3.309 0.902,0.601 3.91,1.203 9.32,1.203 6.02,0.3 10.227,0.902 12.637,2.105 6.012,2.406 9.32,6.617 9.32,13.234 0,0.301 0,0.301 0,0.301 l 0,0 c 0,6.317 -3.008,10.528 -9.019,13.235 -2.41,0.902 -6.617,1.804 -12.332,2.105 -3.91,0.602 -6.618,0.902 -8.125,1.203 0,1.203 0,2.707 0,4.813 l 0.605,57.144 0,0 c 0,10.532 -0.301,16.543 -0.906,18.649 0,1.203 -0.598,2.105 -1.5,3.008 -2.106,2.406 -6.016,3.609 -12.031,4.21 -2.106,0 -3.911,0.301 -5.414,0.602 -2.407,3.609 -5.114,6.02 -7.52,7.824 -4.812,3.61 -10.828,5.11 -17.746,5.11 -2.106,0 -4.211,0 -6.617,-0.301 -8.422,-1.199 -14.438,-10.223 -18.047,-27.067 -1.805,-8.125 -3.609,-21.957 -5.414,-41.207 -1.504,-15.941 -2.707,-25.566 -3.906,-28.875 -1.809,-0.601 -5.118,-1.203 -10.231,-2.105 -7.219,-1.504 -12.633,-2.707 -15.637,-3.91 -7.519,-2.707 -11.429,-7.219 -11.429,-13.235 0,-4.211 0.898,-7.82 2.703,-10.527 1.508,-2.406 4.215,-4.812 7.82,-7.219 2.711,-1.804 8.426,-3.008 17.449,-3.609 5.11,-0.301 8.418,-0.598 10.223,-1.203 0.906,-6.016 1.504,-24.961 1.504,-56.547 0,-27.066 -0.301,-52.332 -0.902,-75.492 -0.301,-9.321 -2.407,-15.942 -6.618,-20.149 -2.707,-2.7107 -6.617,-4.5114 -11.726,-5.113 -0.305,0 -0.305,0 -0.606,0 -4.211,0 -7.82,4.211 -11.429,12.332 -0.598,2.102 -0.899,7.816 -0.899,17.445 l 1.504,73.086 0,0 c 0,14.438 -0.605,25.567 -1.504,33.086 -1.804,12.633 -6.015,19.246 -12.633,19.246 -6.015,0 -10.531,0.907 -14.136,2.407 -1.805,1.203 -3.91,3.007 -6.617,5.714 l 0,0 -1.504,1.805 0,0 c -0.301,0 -0.301,0 -0.301,0 -2.707,2.707 -6.016,5.113 -10.227,6.918 -6.015,3.008 -12.031,4.512 -18.648,4.512 -14.137,0 -27.371,-6.617 -40.305,-19.852 -13.234,-13.832 -22.558,-36.39 -27.668,-67.972 -2.41,-15.34 -3.609,-29.477 -3.609,-42.411 l 0,0 z M 897.5,76.9961 c 0.605,0 1.207,0 1.809,0 12.929,-0.9023 23.461,-1.1992 31.578,-1.1992 12.636,0 20.156,0.5976 22.859,1.8047 4.817,3.9101 9.926,9.3203 14.738,16.2422 6.317,9.0192 9.625,17.7462 10.227,25.8672 l 0,0 0.902,9.621 0,0 c 1.207,16.844 1.809,28.574 1.809,35.191 0,1.805 0,3.309 0,4.813 -7.82,-7.82 -21.957,-23.461 -42.715,-47.219 C 918.559,99.2539 905.02,84.2148 897.5,76.9961 l 0,0 z m -551.914,71.5899 0,0 c 0,-7.824 0.602,-16.246 1.203,-25.266 1.504,-16.242 3.309,-26.4684 5.715,-30.3786 4.512,-5.418 9.023,-8.1211 12.934,-8.1211 2.707,0 5.113,1.2031 7.519,3.6094 2.406,2.4023 3.91,5.1133 4.512,8.1211 0.601,2.4023 1.203,10.2222 1.804,23.1602 0.903,15.336 1.504,29.773 1.504,43.309 0,26.464 -1.504,41.804 -4.511,46.621 -2.707,3.308 -5.715,5.113 -8.723,5.113 -2.707,0 -5.715,-1.203 -9.023,-3.91 -3.309,-2.406 -6.317,-5.414 -8.723,-9.324 -3.008,-4.817 -4.512,-17.446 -4.512,-37.895 l 0.301,-15.039 0,0 z m 307.992,-39.707 c 0.602,0.301 1.203,1.203 1.805,2.41 0.301,0.602 0.898,1.199 1.199,1.801 3.914,3.609 6.918,14.137 9.328,31.887 1.5,11.128 2.406,21.351 2.707,30.074 -0.301,0 -0.301,0 -0.601,0 -2.106,0.601 -4.215,2.406 -6.317,5.414 -0.902,0.902 -2.109,3.008 -3.91,6.015 -3.309,5.715 -6.016,9.325 -7.82,11.129 -1.805,-2.707 -3.61,-8.421 -5.414,-17.144 -2.407,-11.731 -3.61,-25.266 -3.61,-39.703 0,-12.332 2.106,-21.352 6.918,-27.371 1.805,-2.403 3.91,-3.911 5.715,-4.512 l 0,0"
         style="fill:#FFFFFF;fill-opacity:1;fill-rule:evenodd;stroke:none"
         id="path20" /><path
         d="m 150.688,14.4375 c -14.438,0 -34.29,2.1055 -52.0357,13.8398 C 78.1992,41.8086 38.7969,89.0313 23.1602,143.469 8.12109,198.211 15.0391,263.777 24.6641,287.84 38.5,322.43 81.5078,381.684 140.461,389.504 c 77.898,9.922 109.18,-40.008 122.414,-58.352 3.309,-12.031 3.008,-20.453 -7.219,-27.672 -29.176,-9.925 -31.582,-19.55 -37.297,-24.363 -12.632,-9.926 -21.656,-8.121 -30.074,3.008 -9.324,9.625 7.817,44.516 -32.488,45.117 -41.805,0.602 -67.672,-46.922 -73.9884,-65.871 -6.3164,-18.949 -7.5195,-102.863 20.4534,-138.051 19.25,-24.0661 33.386,-31.5856 49.926,-31.5856 16.246,0 36.097,17.4456 43.914,40.0036 4.511,14.137 4.812,22.86 0.601,24.664 -4.812,1.504 -26.168,3.911 -27.672,24.664 -0.898,22.258 0,32.184 28.875,49.926 28.574,17.746 59.856,40.606 69.481,17.746 9.625,-22.855 6.316,-101.359 1.203,-121.511 C 263.477,106.773 248.438,68.875 220.465,45.418 188.586,18.0469 168.73,14.4375 150.688,14.4375 l 0,0 z M 298.664,141.965 c 0,0 -0.598,-38.801 6.02,-55.6408 17.742,-43.6133 48.722,-48.7265 56.543,-48.7265 22.558,-0.3008 25.265,12.332 33.988,12.0312 12.93,-0.9023 10.527,-12.332 43.008,-4.8125 28.574,5.1133 35.191,39.6992 43.914,36.9961 5.414,-2.1094 13.836,-36.9961 46.32,-41.207 26.164,-3.6094 42.109,21.0508 42.109,21.0508 9.922,15.6445 20.149,51.7347 22.86,41.5077 9.32,-33.082 33.984,-63.1601 62.558,-64.664 28.875,-1.2031 43.614,23.7617 50.231,40.0039 9.621,16.5391 17.14,85.7191 18.648,91.1331 1.5,5.109 8.117,0.601 25.864,3.308 17.445,3.008 38.8,43.614 49.628,47.524 11.129,3.91 20.45,-6.321 26.77,-13.535 3.91,-6.922 -18.648,-30.981 -35.496,-80.004 -11.129,-58.9534 5.719,-80.0081 33.687,-86.0237 22.86,-3.0079 47.825,24.6601 63.465,36.3945 15.641,12.0312 91.735,106.4722 96.848,102.5622 5.414,-3.609 1.805,-40.004 0,-61.359 -1.199,-21.3517 -19.547,-41.2032 -27.973,-47.2188 -8.422,-6.3204 -59.851,-1.8086 -62.859,-1.8086 -2.707,0 2.105,-7.2149 22.558,-23.1563 20.75,-16.2422 62.559,-18.043 62.559,-18.043 15.945,0.5977 49.026,1.1993 49.326,24.3594 0.3,7.2188 5.12,8.4219 12.33,25.8672 7.22,17.4453 -6.01,19.5469 -7.52,16.2383 -1.5,-3.3086 -26.46,-32.7813 -29.17,-30.0742 -2.71,2.707 4.81,10.5273 8.12,15.0351 8.72,7.2188 23.46,48.4259 23.46,48.4259 17.15,48.726 -2.41,81.812 -5.71,84.519 -3.61,3.008 -17.75,21.954 -26.77,43.911 -9.328,21.957 -21.058,12.933 -24.066,12.933 -2.703,0 -36.992,-55.64 -41.809,-63.762 -5.109,-8.121 -33.085,-62.562 -41.203,-75.492 -8.722,-18.047 -37.297,-49.0271 -52.031,-58.9528 -15.043,-9.9297 -7.219,27.9687 -5.418,36.3948 2.11,8.718 21.656,53.836 42.711,99.254 21.055,45.714 -14.133,56.242 -14.133,56.242 -12.336,0.902 -55.644,-5.711 -62.863,10.226 -2.109,5.414 -19.551,28.875 -25.266,0.903 -5.714,-27.969 -47.824,-86.621 -47.218,-61.657 0.296,32.481 -12.032,50.528 -25.567,49.625 -15.039,0 -34.289,12.633 -49.328,12.633 -15.641,0 -21.957,-5.715 -44.816,-27.371 C 589.816,226.184 585.605,169.637 585,159.41 c -0.902,-5.715 -5.715,-13.836 -16.543,-33.383 -14.137,-27.3747 -24.66,-42.4137 -40.902,-21.957 -12.633,12.93 -3.61,137.153 -3.61,142.266 0,9.922 2.106,12.629 5.414,15.937 7.219,7.219 28.871,-1.503 29.172,12.032 -0.301,12.933 -23.16,5.113 -29.172,13.234 -1.203,1.805 1.504,75.797 -0.3,82.109 -2.707,3.012 -9.325,1.207 -16.543,3.61 -3.309,4.512 -7.821,14.137 -26.77,11.73 -19.25,-2.703 -15.641,-91.133 -23.762,-95.644 -8.418,-4.512 -34.886,-3.91 -34.886,-13.836 0,-5.715 1.8,-8.422 7.215,-12.031 6.015,-3.911 27.07,-0.602 30.078,-6.317 3.308,-5.715 2.105,-110.984 1.504,-136.25 C 465.293,95.6445 451.762,90.2344 441.531,89.0313 435.52,88.125 428,91.7344 422.285,105.57 c -5.414,13.539 7.219,138.055 -7.519,138.356 -17.746,0 -22.258,7.219 -27.071,12.035 -4.812,4.809 -29.476,22.855 -59.554,-8.426 -29.477,-30.375 -29.477,-105.57 -29.477,-105.57 l 0,0 z m 40.606,6.316 c 0,0 0.601,-48.4216 8.421,-59.5505 18.047,-21.6563 34.289,-6.3164 36.997,6.0117 2.105,7.5198 7.82,103.7698 -2.106,118.5078 -12.934,16.242 -29.777,4.508 -37.898,-8.426 -7.52,-12.027 -5.414,-56.543 -5.414,-56.543 l 0,0 z m 313.703,-47.218 c 0,0 4.515,-0.903 8.425,6.316 12.332,11.73 14.438,67.672 14.137,71.582 -0.605,3.91 -1.805,0.902 -5.715,1.805 -3.308,0.902 -11.73,22.257 -19.55,23.761 -8.422,1.504 -16.243,-29.476 -16.243,-64.668 0,-35.187 18.946,-38.796 18.946,-38.796 l 0,0"
         style="fill:#0021A5;fill-opacity:1;fill-rule:evenodd;stroke:none"
         id="path22" /></g></g></svg>